<?xml version="1.0" encoding="UTF-8" standalone="no"?>
<svg width="2600px" height="1569px" viewBox="0 0 2600 1569" version="1.1" xmlns="http://www.w3.org/2000/svg" xmlns:xlink="http://www.w3.org/1999/xlink" xmlns:sketch="http://www.bohemiancoding.com/sketch/ns">
    <!-- Generator: Sketch 3.4.2 (15857) - http://www.bohemiancoding.com/sketch -->
    <title>chooser_16</title>
    <desc>Created with Sketch.</desc>
    <defs></defs>
    <g id="Page-1" stroke="none" stroke-width="1" fill="none" fill-rule="evenodd" sketch:type="MSPage">
        <path d="M1206.38786,989.981444 L1282.43803,981.907646 L1359.02296,992.050335 L1484.77313,981.974901 L1484.77313,1007.7976 L1546.97417,1013.86977 L1494.17773,1020.20775 L1493.976,1027.01331 L1544.61101,1034.61953 L1638.8748,1024.00925 L1641.27639,1024.71063 L1651.28299,1024.10854 L1700.28172,1029.54658 L1660.62355,1034.35051 L1660.6908,1043.02319 L1716.06173,1049.69425 L1985.57395,1018.20291 L2015.45926,1021.13971 L2097.5102,1011.3461 L2097.48138,1002.49087 L2139.60837,998.686158 L2139.60837,1063.64164 L2097.10993,1089.46115 L2097.10993,1079.31846 L2012.7855,1092.66376 L1982.90018,1089.46115 L1712.85641,1126.82608 L1071.36437,1031.81403 L1165.56092,1021.80585 L1165.86192,984.975753 L1206.38786,989.981444 L1206.38786,989.981444 Z" id="C1" opacity="0.41" fill="#9B0CD5" sketch:type="MSShapeGroup"></path>
        <path d="M2139.19293,1001.06968 L2097.06593,1004.87439 L2097.09475,1013.72962 L2015.04382,1023.52323 L1985.1585,1020.58643 L1715.64628,1052.07776 L1660.27535,1045.40671 L1660.2081,1036.73402 L1699.86627,1031.9301 L1650.86754,1026.49205 L1640.86094,1027.09415 L1638.45935,1026.39277 L1544.19556,1037.00304 L1493.56055,1029.39683 L1493.76229,1022.59127 L1546.55872,1016.25329 L1484.35768,1010.18112 L1484.35768,984.35842 L1358.60752,994.433854 L1282.02259,984.291165 L1205.97241,992.364963 L1165.44647,987.359272 L1161.5431,986.356853 L1161.5431,977.949982 L1163.94468,977.949982 L1163.94468,970.145204 L1119.31363,974.247757 L1074.88432,968.543895 L1074.38479,960.937679 L1164.61072,953.8663 L1165.01098,891.280751 L1233.45614,898.35213 L1233.19357,903.556383 L1358.87649,916.501363 L1568.21461,895.284023 L1569.4154,913.699072 L1482.95836,922.906597 L1482.95836,930.112487 L1625.05211,946.926228 L1651.06927,943.323283 L1791.56197,959.33637 L1983.68873,941.721975 L2011.70722,944.123938 L2089.75871,936.918048 L2090.55924,928.911505 L2139.19293,923.902611 L2139.19293,1001.06968 L2139.19293,1001.06968 Z" id="C2" opacity="0.5" fill="#016BFF" sketch:type="MSShapeGroup"></path>
        <path d="M1147.88489,879.596626 L1231.00533,871.324265 L1229.67005,815.813298 L1274.63412,813.744407 L1312.52472,817.280097 L1247.0159,819.54755 L1247.21763,827.554093 L1291.64694,831.75913 L1366.69806,825.952785 L1441.54424,834.225145 L1568.42796,824.883111 L1568.54323,844.233325 L1658.2216,851.038887 L1673.16586,851.038887 L1725.46597,854.776341 L1739.87547,853.175032 L1877.56632,865.985502 L2139.40627,840.489465 L2139.40627,922.226666 L2090.77259,927.235559 L2089.97206,935.242103 L2011.92056,942.447992 L1983.90208,940.046029 L1791.77532,957.660424 L1651.28262,941.647337 L1625.26546,945.250282 L1483.17171,928.436541 L1483.17171,921.230652 L1569.62875,912.023127 L1568.42796,893.608077 L1359.08984,914.825417 L1233.40692,901.880437 L1233.67269,896.676184 L1165.22753,889.604805 L1147.88169,887.603169 L1147.88169,879.596626 L1147.88489,879.596626 Z" id="C3" opacity="0.55" fill="#1FD501" sketch:type="MSShapeGroup"></path>
        <path d="M1158.95656,807.852676 L1246.6144,801.979075 L1245.5481,739.793854 L1441.54301,756.072758 L1568.22819,750.266413 L1567.82793,744.8668 L1862.75531,728.15234 L1998.71061,736.360648 L1998.61135,766.987278 L2000.91367,766.987278 L2000.91367,769.389241 L1998.81308,774.593494 L1998.57613,812.121765 L2139.8021,823.865763 L2139.8021,841.073426 L1877.96535,866.56626 L1740.2745,853.755791 L1725.865,855.357099 L1673.56489,851.619645 L1658.62063,851.619645 L1568.94226,844.814083 L1568.82699,825.463869 L1441.94327,834.805904 L1367.09389,826.533543 L1292.04277,832.339888 L1247.61666,828.134852 L1247.41493,820.128308 L1312.92375,817.860855 L1275.03315,814.325165 L1230.06908,816.394056 L1202.58535,818.526999 L1158.95656,814.321963 L1158.95656,807.852676 L1158.95656,807.852676 Z" id="C4" opacity="0.5" fill="#FFCC0E" sketch:type="MSShapeGroup"></path>
        <path d="M1229.43304,719.199937 L1314.28903,713.528101 L1314.28903,646.273136 L1522.56084,638.53241 L1695.80794,647.739935 L1695.60621,638.53241 L1730.63092,638.53241 L1780.99695,638.53241 L1781.5317,651.077062 L1862.65082,654.545497 L1862.65082,728.304978 L1567.72344,745.019438 L1568.1237,750.425456 L1441.43852,756.231801 L1245.4436,739.952897 L1229.43304,738.751916 L1229.43304,719.199937 L1229.43304,719.199937 Z" id="C5" opacity="0.49" fill="#EF4725" sketch:type="MSShapeGroup"></path>
        <path d="M492.000002,822.000001 L548.000002,818.000001 L548.000002,762.731828 L559.348874,763.266665 L844.071127,747.253578 L864.88486,748.32005 L953.477711,745.117432 L953.477711,740.579323 L1007.91363,738.712198 L1007.91363,762.731828 L954.544015,792.625058 L954.544015,805.435528 L863.283803,811.840763 L844.60588,811.305926 L556.950492,828.920321 L492.000002,822.000001 Z" id="B4" opacity="0.52" fill="#9B0CD5" sketch:type="MSShapeGroup"></path>
        <path d="M327,803.999999 L427,793.999999 L427,755.999999 L438,755.999999 L524.87915,751.999999 L524.879142,760.181437 L548,764 L548,818.000003 L493,822.000003 L327,803.999999 Z" id="B3" opacity="0.52" fill="#FFBF00" sketch:type="MSShapeGroup"></path>
        <path d="M264,733 L292.504016,731.173236 L342,734.708926 L424,734.708926 L424,745 L404,745 L404,752.999999 L424,754.999999 L426,793.999999 L342,801.000003 L264,793.999999 L264,733 Z" id="B2" opacity="0.52" fill="#FF003B" sketch:type="MSShapeGroup"></path>
        <path d="M226.594931,734.708926 L264,733 L264,794.999999 L130,781.950735 L227.930212,776.877789 L226.594931,734.708926 Z" id="B1" opacity="0.52" fill="#2200FF" sketch:type="MSShapeGroup"></path>
        <path d="M547.646809,751.554028 L547.646809,679.357426 L641.510338,686.364753 L843.97672,679.226119 L865.325206,681.093244 L948.580135,679.491936 L948.580135,673.887355 L1008.88552,671.75121 L1008.88552,737.939703 L954.449608,739.806829 L954.449608,744.344938 L865.856756,747.547555 L845.043024,746.481083 L560.320771,762.49417 L525.097531,759.82639 L525.097531,751.554029 L547.646809,751.554028 Z" id="B8" opacity="0.43" fill="#1FD501" sketch:type="MSShapeGroup"></path>
        <path d="M425,674 L522.029907,680.958735 L547.646809,679.357426 L547.646798,752.34828 L522.029916,752.34828 L438.374714,755.016059 L404.752531,752.348278 L404.486755,744.607552 L425,744.607552 L425,674 Z" id="B7" opacity="0.43" fill="#01D5C4" sketch:type="MSShapeGroup"></path>
        <path d="M259,733 L212,735.400024 L181,735.400024 L184,727 L258,721 L258,663 L343.643412,667.744735 L424.000008,667.744735 L424.000008,733.933225 L343.710657,735.400027 L293.475913,730.394336 L259,733 Z" id="B6" opacity="0.43" fill="#01D568" sketch:type="MSShapeGroup"></path>
        <path d="M258.252671,721.000002 L184.341509,725.660868 L164.59408,725.660868 L136.040841,723.524722 L136.040841,716.58465 L223.000001,712.000002 L223.000001,660.007212 L258.252673,660.007212 L258.252671,721.000002 Z" id="B5" opacity="0.43" fill="#0201D5" sketch:type="MSShapeGroup"></path>
        <path d="M603,679.787886 L662,668.999998 L662,610 L733.083161,612.257492 L1008.9996,606.252585 L1008.9996,672.312973 L948.694216,674.449119 L948.694216,680.0537 L865.439287,681.655008 L844.090802,679.787882 L641.624419,686.926516 L603,686.92652 L603,679.787886 Z" id="B12" opacity="0.46" fill="#EF4725" sketch:type="MSShapeGroup"></path>
        <path d="M513.872931,670.999998 L512,604 L574.978848,606.857096 L592.590468,606.255004 L625.213591,607.455985 L639.999988,607.455985 L661.999988,609 L661.999988,667.309698 L600.999988,678.919188 L600.999988,682.999998 L547.76089,678.91919 L522.143989,680.520498 L426.679403,674.313826 L426.679403,666.509047 L513.872931,670.999998 Z" id="B11" opacity="0.46" fill="#A5093E" sketch:type="MSShapeGroup"></path>
        <path d="M321.999998,654.999998 L321.999998,598.649571 L377.648654,597.246825 L429.282721,598.649571 L510.999988,598.649571 L514.999994,663.239958 L426.679403,667.509047 L341.000002,667.509047 L258.366755,663.239958 L258.366755,657.999998 L321.999998,654.999998 Z" id="B10" opacity="0.46" fill="#E07B67" sketch:type="MSShapeGroup"></path>
        <path d="M207,657.999999 L207,650.625632 L258.366756,647.999999 L284.054194,649.974305 L284.054192,644.999999 L291,644.999999 L291.000003,599.447806 L322.000003,599.447806 L322.000003,655.999999 L258,658 L258.366756,660.236686 L227.684111,660.236687 L207,657.999999 Z" id="B9" opacity="0.46" fill="#EF6325" sketch:type="MSShapeGroup"></path>
        <path d="M513.327851,539.713311 L573.236181,538.91586 L589.781497,538.381023 L623.40368,539.982331 L681.842237,538.381023 L746.419243,540.782986 L879.841672,540.248149 L912.128574,539.713312 L912.128574,582.948646 L1008.45773,586.016754 L1008.45773,606.833766 L732.538085,612.841877 L641.012098,608.572788 L624.668515,609.04037 L592.045391,607.839388 L574.433771,608.44148 L513.327855,606.039517 L513.327851,539.713311 Z" id="B15" opacity="0.56" fill="#016BFF" sketch:type="MSShapeGroup"></path>
        <path d="M299,599.233956 L269,599.233956 L269,593.000001 L354,593.000001 L354,531.444153 L512.661815,531.444153 L513.327855,597.831209 L354,599.233956 L299,599.233956 Z" id="B14" opacity="0.56" fill="#050453" sketch:type="MSShapeGroup"></path>
        <path d="M249.419334,594.228265 L218.599,593.027283 L218.599,587.220938 L306.858831,585.619629 L306.858834,527 L354.000001,531 L354.000001,593.027283 L306.858834,593.027283 L249.419334,594.228265 Z" id="B13" opacity="0.56" fill="#0FCC54" sketch:type="MSShapeGroup"></path>
        <path d="M291.08909,528.826528 L291.08909,511.811021 L365.938474,511.811021 L365.736741,448.959655 L683.347893,449.561747 L683.347893,439.153241 L759.663845,439.153241 L759.663845,449.561747 L817.036098,449.561747 L818.902929,515.055273 L912.029972,515.055273 L911.764197,539.769871 L879.477295,540.304708 L879.477295,537.636928 L746.054866,540.839545 L681.47786,538.437582 L623.039303,540.038891 L589.41712,538.437582 L572.871804,538.972419 L512.297438,537.905948 L512.297438,531.500713 L426.640924,531.76653 L306.500859,528.826528 L291.08909,528.826528 Z" id="B16" opacity="0.59" fill="#FFCC0E" sketch:type="MSShapeGroup"></path>
        <path d="M2000.40537,770.165397 L2000.87288,769.009252 L2000.87288,766.607289 L1998.57056,766.607289 L1998.66983,735.980659 L1862.71453,727.772351 L1862.71453,707.163508 L1896.33671,708.723182 L2011.87854,704.992133 L2011.87854,710.061877 L2031.49148,710.061877 L2031.49148,714.199658 L2081.52449,716.066784 L2148.3686,712.063512 L2153.97229,712.864167 L2159.97625,712.063512 L2181.19025,712.46384 L2181.19025,720.070056 L2230.2242,720.969991 L2298.87109,718.468747 L2429.35718,713.264494 L2454.57382,713.664821 L2518.21581,710.061877 L2489.79706,736.48347 L2447.76933,768.109316 L2427.35586,768.109316 L2226.42009,784.65724 L2000.40537,770.165397 L2000.40537,770.165397 Z" id="A1" opacity="0.63" fill="#9B0CD5" sketch:type="MSShapeGroup"></path>
        <path d="M2454.0838,714.861623 L2428.86717,714.461296 L2229.73418,722.166793 L2180.70023,721.266858 L2180.70023,713.660642 L2159.48624,713.260314 L2153.48227,714.060969 L2147.87858,713.260314 L2081.03447,717.263586 L2031.00146,715.39646 L2031.00146,711.258679 L2011.39173,711.258679 L2011.39173,706.188935 L1895.84989,709.92639 L1862.22771,708.366715 L1862.22771,655.212874 L1781.10859,651.74444 L1780.57384,639.199788 L1706.65947,639.199788 L1706.65947,627.45579 L1779.50753,630.12357 L1779.50753,631.990696 L1895.11661,634.994751 L2011.39173,634.597626 L2011.6575,641.604953 L2139.2745,647.209534 L2159.22046,647.209534 L2284.1701,651.613133 L2428.19793,643.741099 L2454.88113,645.877245 L2512.78493,643.741099 L2512.78493,645.342408 L2545.34081,643.741099 L2545.34081,673.36531 L2513.85444,690.713888 L2513.85444,700.587557 L2517.72259,700.587557 L2517.72259,711.261881 L2454.0838,714.861623 L2454.0838,714.861623 Z" id="A2" opacity="0.49" fill="#FFCC0E" sketch:type="MSShapeGroup"></path>
        <path d="M2546.33976,642.016709 L2513.78388,643.618018 L2513.78388,642.016709 L2455.88008,644.152855 L2429.19687,642.016709 L2285.16905,649.888743 L2160.21941,645.485144 L2140.27345,645.485144 L2012.65645,639.880564 L2012.38747,632.876439 L1896.10915,633.276766 L1780.50008,630.272711 L1780.50008,628.405585 L1707.65202,625.737805 L1694.57779,624.671334 L1694.57779,618.464661 L1758.02125,616.661588 L1757.41925,564.619055 L1790.90694,564.016963 L1790.97419,568.753634 L1832.93467,569.288471 L1888.57138,567.421345 L1959.81839,569.422981 L2075.09445,568.622327 L2075.12647,573.82658 L2157.08134,575.728935 L2169.48952,575.126843 L2216.78793,576.228543 L2226.12849,576.094033 L2351.27666,579.030833 L2546.33976,572.225271 L2546.33976,642.016709 L2546.33976,642.016709 Z" id="A3" opacity="0.67" fill="#016BFF" sketch:type="MSShapeGroup"></path>
        <path d="M1756.46936,565.451182 L1702.63224,565.451182 L1702.63224,559.045948 L1765.87397,557.044312 L1765.87397,503.599033 L1957.60047,507.003415 L2073.87878,505.402107 L2073.87878,509.405378 L2155.93292,509.805706 L2167.94084,510.206033 L2215.17201,509.805706 L2256.79947,509.805706 L2338.45334,511.807341 L2433.05016,509.139561 L2432.98291,513.808977 L2420.97499,513.876232 L2421.20874,557.044312 L2545.38988,556.509475 L2545.38988,573.057399 L2350.32678,579.862961 L2225.17861,576.92616 L2215.04072,577.041455 L2168.53964,575.95897 L2156.13145,576.561062 L2074.17658,574.658707 L2074.14456,569.454454 L1958.8685,570.255109 L1887.6215,568.253473 L1831.98479,570.120599 L1790.0243,569.585761 L1789.95706,564.84909 L1756.46936,565.451182 L1756.46936,565.451182 Z" id="A4" opacity="0.5" fill="#EF4725" sketch:type="MSShapeGroup"></path>
        <path d="M1766.34037,503.003087 L1756.99981,503.003087 L1756.99981,486.788235 L1826.97878,486.788235 L1826.97878,426.873669 L2154.92956,426.607852 L2154.92956,417 L2224.57551,417 L2224.57551,426.073015 L2297.1578,426.338832 L2297.1578,487.45438 L2419.97162,488.988433 L2419.97162,508.918321 L2338.91655,511.20499 L2257.26267,509.203354 L2215.63521,509.203354 L2168.40405,509.603681 L2156.39612,509.203354 L2074.34199,508.80623 L2074.34199,504.802958 L1958.06367,506.404267 L1766.34037,503.003087 L1766.34037,503.003087 Z" id="A5" opacity="0.67" fill="#1FD501" sketch:type="MSShapeGroup"></path>
    </g>
</svg>